# xmcd
#
# Track frame offsets:
# 150
# 17387
# 28597
# 40793
# 56804
# 70109
# 87733
# 103910
# 117688
# 129311
# 141896
# 157490
#
# Disc length: 2303 seconds
#
#
# Revision: 0
# Processed by: cddbd v1.5.2PL0 Copyright (c) Steve Scherf et al.
# Submitted via: FreeRIP 2.931 
#
DISCID=af08fd0c
DTITLE=Μάνος Λοΐζος - ΜΑΝΟΣ ΛΟΪΖΟΣ - ΕΝΘΥΜΙΟΝ ΤΡΥΦΕΡΟΤΗΤΑΣ (Δίφωνο 24)
DYEAR=1900
DGENRE=Νέο Κύμα
TTITLE0=Σεβάχ ο Θαλασσινός
TTITLE1=Ο γερο-νέγρο Τζιμ
TTITLE2=Τ' ακορντεόν
TTITLE3=Νανούρισμα
TTITLE4=Ο αρχηγός
TTITLE5=Κουτσή κιθάρα
TTITLE6=Χτύπησαν αργά
TTITLE7=Πόσο σ' αγαπώ
TTITLE8=Σε ψάχνω
TTITLE9=Δώδεκα παιδιά
TTITLE10=Σ' ακολουθώ
TTITLE11=Η μέρα εκείνη δε θ' αργήσει
EXTD=
EXTT0=
EXTT1=
EXTT2=
EXTT3=
EXTT4=
EXTT5=
EXTT6=
EXTT7=
EXTT8=
EXTT9=
EXTT10=
EXTT11=
PLAYORDER=
